<svg xmlns="http://www.w3.org/2000/svg" viewBox="0 0 40 45" width="40" height="45" shape-rendering="crispEdges"><g transform="translate(4 18)"><rect x="8" y="22" width="17" height="5" fill="#666052"/><rect x="8" y="22" width="17" height="2" fill="#A29A88"/><rect x="14" y="-4" width="5" height="27" fill="#68521a"/><rect x="14" y="-4" width="2" height="27" fill="#B08D2E"/><rect x="-4" y="-18" width="40" height="15" fill="#23201A"/><rect x="-3" y="-17" width="38" height="13" fill="#2E2A22"/><rect x="-3" y="-17" width="38" height="1" fill="#B08D2E"/><rect x="5" y="-12" width="1" height="1" fill="#FFFDF5"/><rect x="6" y="-12" width="1" height="1" fill="#FFFDF5"/><rect x="7" y="-12" width="1" height="1" fill="#FFFDF5"/><rect x="5" y="-11" width="1" height="1" fill="#FFFDF5"/><rect x="7" y="-11" width="1" height="1" fill="#FFFDF5"/><rect x="5" y="-10" width="1" height="1" fill="#FFFDF5"/><rect x="6" y="-10" width="1" height="1" fill="#FFFDF5"/><rect x="7" y="-10" width="1" height="1" fill="#FFFDF5"/><rect x="5" y="-9" width="1" height="1" fill="#FFFDF5"/><rect x="7" y="-9" width="1" height="1" fill="#FFFDF5"/><rect x="5" y="-8" width="1" height="1" fill="#FFFDF5"/><rect x="7" y="-8" width="1" height="1" fill="#FFFDF5"/><rect x="9" y="-12" width="1" height="1" fill="#FFFDF5"/><rect x="10" y="-12" width="1" height="1" fill="#FFFDF5"/><rect x="11" y="-12" width="1" height="1" fill="#FFFDF5"/><rect x="9" y="-11" width="1" height="1" fill="#FFFDF5"/><rect x="11" y="-11" width="1" height="1" fill="#FFFDF5"/><rect x="9" y="-10" width="1" height="1" fill="#FFFDF5"/><rect x="10" y="-10" width="1" height="1" fill="#FFFDF5"/><rect x="9" y="-9" width="1" height="1" fill="#FFFDF5"/><rect x="10" y="-9" width="1" height="1" fill="#FFFDF5"/><rect x="9" y="-8" width="1" height="1" fill="#FFFDF5"/><rect x="11" y="-8" width="1" height="1" fill="#FFFDF5"/><rect x="13" y="-12" width="1" height="1" fill="#FFFDF5"/><rect x="14" y="-12" width="1" height="1" fill="#FFFDF5"/><rect x="15" y="-12" width="1" height="1" fill="#FFFDF5"/><rect x="13" y="-11" width="1" height="1" fill="#FFFDF5"/><rect x="13" y="-10" width="1" height="1" fill="#FFFDF5"/><rect x="13" y="-9" width="1" height="1" fill="#FFFDF5"/><rect x="13" y="-8" width="1" height="1" fill="#FFFDF5"/><rect x="14" y="-8" width="1" height="1" fill="#FFFDF5"/><rect x="15" y="-8" width="1" height="1" fill="#FFFDF5"/><rect x="17" y="-12" width="1" height="1" fill="#FFFDF5"/><rect x="18" y="-12" width="1" height="1" fill="#FFFDF5"/><rect x="19" y="-12" width="1" height="1" fill="#FFFDF5"/><rect x="17" y="-11" width="1" height="1" fill="#FFFDF5"/><rect x="19" y="-11" width="1" height="1" fill="#FFFDF5"/><rect x="17" y="-10" width="1" height="1" fill="#FFFDF5"/><rect x="18" y="-10" width="1" height="1" fill="#FFFDF5"/><rect x="19" y="-10" width="1" height="1" fill="#FFFDF5"/><rect x="17" y="-9" width="1" height="1" fill="#FFFDF5"/><rect x="19" y="-9" width="1" height="1" fill="#FFFDF5"/><rect x="17" y="-8" width="1" height="1" fill="#FFFDF5"/><rect x="19" y="-8" width="1" height="1" fill="#FFFDF5"/><rect x="21" y="-12" width="1" height="1" fill="#FFFDF5"/><rect x="22" y="-12" width="1" height="1" fill="#FFFDF5"/><rect x="21" y="-11" width="1" height="1" fill="#FFFDF5"/><rect x="23" y="-11" width="1" height="1" fill="#FFFDF5"/><rect x="21" y="-10" width="1" height="1" fill="#FFFDF5"/><rect x="23" y="-10" width="1" height="1" fill="#FFFDF5"/><rect x="21" y="-9" width="1" height="1" fill="#FFFDF5"/><rect x="23" y="-9" width="1" height="1" fill="#FFFDF5"/><rect x="21" y="-8" width="1" height="1" fill="#FFFDF5"/><rect x="22" y="-8" width="1" height="1" fill="#FFFDF5"/><rect x="25" y="-12" width="1" height="1" fill="#FFFDF5"/><rect x="26" y="-12" width="1" height="1" fill="#FFFDF5"/><rect x="27" y="-12" width="1" height="1" fill="#FFFDF5"/><rect x="25" y="-11" width="1" height="1" fill="#FFFDF5"/><rect x="25" y="-10" width="1" height="1" fill="#FFFDF5"/><rect x="26" y="-10" width="1" height="1" fill="#FFFDF5"/><rect x="25" y="-9" width="1" height="1" fill="#FFFDF5"/><rect x="25" y="-8" width="1" height="1" fill="#FFFDF5"/><rect x="26" y="-8" width="1" height="1" fill="#FFFDF5"/><rect x="27" y="-8" width="1" height="1" fill="#FFFDF5"/><rect x="29" y="-12" width="5" height="2" fill="#DCC06B"/><rect x="31" y="-14" width="2" height="2" fill="#DCC06B"/><rect x="31" y="-10" width="2" height="2" fill="#DCC06B"/></g></svg>